<?xml version="1.0" encoding="UTF-8"?>
<svg width="25px" height="19px" viewBox="0 0 25 19" version="1.1" xmlns="http://www.w3.org/2000/svg" xmlns:xlink="http://www.w3.org/1999/xlink">
    <!-- Generator: Sketch 52.2 (67145) - http://www.bohemiancoding.com/sketch -->
    <title>laptop-smartphone</title>
    <desc>Created with Sketch.</desc>
    <g id="Getting-Started" stroke="none" stroke-width="1" fill="none" fill-rule="evenodd">
        <g id="laptop-smartphone" fill-rule="nonzero">
            <polygon id="Shape" fill="#242940" points="18 8 21 8 21 3 4 3 4 13 18 13"></polygon>
            <rect id="Rectangle-path" fill="#242940" x="22" y="8" width="2" height="10"></rect>
            <path d="M15.5,16 C15.7761424,16 16,15.7761424 16,15.5 C16,15.2238576 15.7761424,15 15.5,15 L2,15 L2,1.5 C2,1.22385763 2.22385763,1 2.5,1 L22.5,1 C22.7761424,1 23,1.22385763 23,1.5 L23,5.5 C23,5.77614237 23.2238576,6 23.5,6 C23.7761424,6 24,5.77614237 24,5.5 L24,1.5 C23.9991181,0.671938427 23.3280616,0.00088185546 22.5,0 L2.5,0 C1.67193843,0.00088185546 1.00088186,0.671938427 1,1.5 L1,15 L0.5,15 C0.223857625,15 3.38176876e-17,15.2238576 0,15.5 L0,16.5 C1.69088438e-16,17.8807119 1.11928813,19 2.5,19 L15.5,19 C15.7761424,19 16,18.7761424 16,18.5 C16,18.2238576 15.7761424,18 15.5,18 L2.5,18 C1.67193843,17.9991181 1.00088186,17.3280616 1,16.5 L1,16 L15.5,16 Z" id="Shape" fill="#8075F2"></path>
            <path d="M24,7 L18,7 C17.4477153,7 17,7.44771525 17,8 L17,18 C17,18.5522847 17.4477153,19 18,19 L24,19 C24.5522847,19 25,18.5522847 25,18 L25,8 C25,7.44771525 24.5522847,7 24,7 Z M24,18 L18,18 L18,8 L24,8 L24,18 Z" id="Shape" fill="#8075F2"></path>
            <path d="M20.5,17 L21.5,17 C21.7761424,17 22,16.7761424 22,16.5 C22,16.2238576 21.7761424,16 21.5,16 L20.5,16 C20.2238576,16 20,16.2238576 20,16.5 C20,16.7761424 20.2238576,17 20.5,17 Z" id="Shape" fill="#8075F2"></path>
        </g>
    </g>
</svg>