<?xml version="1.0" encoding="UTF-8"?>
<svg width="44px" height="42px" viewBox="0 0 44 42" version="1.1" xmlns="http://www.w3.org/2000/svg" xmlns:xlink="http://www.w3.org/1999/xlink">
    <!-- Generator: Sketch 52.5 (67469) - http://www.bohemiancoding.com/sketch -->
    <title>checklist</title>
    <desc>Created with Sketch.</desc>
    <g id="Page-1" stroke="none" stroke-width="1" fill="none" fill-rule="evenodd">
        <g id="checklist" fill="#152C4D">
            <path d="M4.034,36.894 L5.093,38.989 L6.151,36.894 L6.151,11.571 L4.034,11.571 L4.034,36.894 Z M5.093,41.207 L3.034,37.132 L3.034,10.571 L7.151,10.571 L7.151,37.132 L5.093,41.207 Z" id="Fill-245"></path>
            <polygon id="Fill-246" points="4.593 41.598 5.593 41.598 5.593 39.889 4.593 39.889"></polygon>
            <polygon id="Fill-247" points="3.034 36.629 7.151 36.629 7.151 35.629 3.034 35.629"></polygon>
            <path d="M4.725,10.571 L5.46,10.571 L5.46,9.486 L4.725,9.486 L4.725,10.571 Z M3.725,11.571 L6.46,11.571 L6.46,8.486 L3.725,8.486 L3.725,11.571 Z" id="Fill-248"></path>
            <path d="M1.611,24.339 L0.611,24.339 L0.611,14.256 C0.611,13.27 1.413,12.467 2.399,12.467 L7.151,12.467 L7.151,13.467 L2.399,13.467 C1.964,13.467 1.611,13.821 1.611,14.256 L1.611,24.339" id="Fill-249"></path>
            <path d="M34.356,37.348 L35.66,37.348 L35.852,35.429 L36.198,35.347 C36.73,35.221 37.235,35.011 37.7,34.724 L38.003,34.537 L39.497,35.759 L40.419,34.837 L39.197,33.344 L39.384,33.041 C39.671,32.574 39.881,32.068 40.007,31.539 L40.089,31.192 L42.008,31 L42.008,29.697 L40.089,29.505 L40.007,29.159 C39.881,28.628 39.671,28.123 39.384,27.656 L39.197,27.353 L40.419,25.859 L39.497,24.938 L38.004,26.16 L37.701,25.973 C37.234,25.685 36.728,25.475 36.198,25.349 L35.852,25.267 L35.66,23.348 L34.356,23.348 L34.165,25.267 L33.818,25.349 C33.289,25.475 32.783,25.685 32.316,25.973 L32.013,26.159 L30.519,24.938 L29.597,25.859 L30.82,27.354 L30.632,27.657 C30.345,28.122 30.136,28.627 30.009,29.159 L29.927,29.505 L28.008,29.697 L28.008,31 L29.927,31.192 L30.009,31.539 C30.136,32.07 30.345,32.575 30.633,33.041 L30.82,33.344 L29.598,34.837 L30.519,35.759 L32.013,34.537 L32.316,34.724 C32.782,35.011 33.287,35.221 33.818,35.347 L34.165,35.43 L34.356,37.348 Z M36.565,38.348 L33.451,38.348 L33.239,36.227 C32.846,36.108 32.465,35.95 32.103,35.755 L30.452,37.106 L28.25,34.904 L29.602,33.254 C29.406,32.891 29.248,32.511 29.13,32.118 L27.008,31.905 L27.008,28.792 L29.13,28.58 C29.248,28.186 29.406,27.806 29.602,27.443 L28.25,25.792 L30.452,23.591 L32.103,24.941 C32.466,24.746 32.846,24.588 33.239,24.47 L33.451,22.348 L36.565,22.348 L36.777,24.47 C37.17,24.588 37.551,24.746 37.914,24.941 L39.564,23.591 L41.766,25.792 L40.415,27.443 C40.61,27.806 40.768,28.187 40.887,28.58 L43.008,28.792 L43.008,31.905 L40.887,32.118 C40.768,32.511 40.61,32.891 40.415,33.253 L41.766,34.904 L39.564,37.106 L37.914,35.755 C37.551,35.95 37.171,36.108 36.777,36.227 L36.565,38.348 Z" id="Fill-250"></path>
            <path d="M15.942,5.867 L28.273,5.867 L28.273,1.705 L15.942,1.705 L15.942,5.867 Z M14.942,6.867 L29.273,6.867 L29.273,0.705 L14.942,0.705 L14.942,6.867 Z" id="Fill-251"></path>
            <polyline id="Fill-252" points="35.508 41.598 8.707 41.598 8.707 3.286 15.441 3.286 15.441 4.286 9.707 4.286 9.707 40.598 34.508 40.598 34.508 38.255 35.508 38.255 35.508 41.598"></polyline>
            <polyline id="Fill-253" points="35.508 22.442 34.508 22.442 34.508 4.286 28.773 4.286 28.773 3.286 35.508 3.286 35.508 22.442"></polyline>
            <polygon id="Fill-254" points="18.983 4.286 25.233 4.286 25.233 3.286 18.983 3.286"></polygon>
            <polyline id="Fill-255" points="14.175 15.585 11.869 13.157 12.594 12.468 14.175 14.133 17.011 11.147 17.736 11.836 14.175 15.585"></polyline>
            <polyline id="Fill-256" points="14.175 22.502 11.869 20.074 12.594 19.385 14.175 21.05 17.011 18.064 17.736 18.753 14.175 22.502"></polyline>
            <polyline id="Fill-257" points="14.175 29.419 11.869 26.992 12.594 26.303 14.175 27.967 17.011 24.981 17.736 25.67 14.175 29.419"></polyline>
            <polyline id="Fill-258" points="14.175 36.337 11.869 33.909 12.594 33.22 14.175 34.885 17.011 31.898 17.736 32.587 14.175 36.337"></polyline>
            <polygon id="Fill-259" points="19.983 13.856 31.48 13.856 31.48 12.856 19.983 12.856"></polygon>
            <polygon id="Fill-260" points="19.983 20.774 31.48 20.774 31.48 19.774 19.983 19.774"></polygon>
            <polygon id="Fill-261" points="19.983 27.691 26.229 27.691 26.229 26.691 19.983 26.691"></polygon>
            <polygon id="Fill-262" points="19.983 34.608 26.229 34.608 26.229 33.608 19.983 33.608"></polygon>
            <path d="M35.008,27.848 C33.63,27.848 32.508,28.97 32.508,30.348 C32.508,31.727 33.63,32.848 35.008,32.848 C36.387,32.848 37.508,31.727 37.508,30.348 C37.508,28.97 36.387,27.848 35.008,27.848 Z M35.008,33.848 C33.079,33.848 31.508,32.278 31.508,30.348 C31.508,28.418 33.079,26.848 35.008,26.848 C36.938,26.848 38.508,28.418 38.508,30.348 C38.508,32.278 36.938,33.848 35.008,33.848 Z" id="Fill-263"></path>
        </g>
    </g>
</svg>