<?xml version="1.0" encoding="UTF-8"?>
<svg width="39px" height="35px" viewBox="0 0 39 35" version="1.1" xmlns="http://www.w3.org/2000/svg" xmlns:xlink="http://www.w3.org/1999/xlink">
    <!-- Generator: Sketch 52.5 (67469) - http://www.bohemiancoding.com/sketch -->
    <title>cog</title>
    <desc>Created with Sketch.</desc>
    <g id="Page-1" stroke="none" stroke-width="1" fill="none" fill-rule="evenodd">
        <g id="cog" fill="#152C4D">
            <path d="M18.79,26.554 L20.685,26.554 L20.93,24.097 L21.276,24.015 C21.96,23.853 22.614,23.581 23.219,23.209 L23.521,23.022 L25.433,24.586 L26.771,23.248 L25.207,21.337 L25.394,21.033 C25.766,20.432 26.036,19.778 26.199,19.092 L26.281,18.745 L28.738,18.499 L28.738,16.606 L26.281,16.361 L26.199,16.015 C26.036,15.327 25.766,14.674 25.394,14.073 L25.206,13.771 L26.771,11.857 L25.433,10.52 L23.521,12.083 L23.219,11.896 C22.614,11.524 21.96,11.253 21.276,11.091 L20.93,11.009 L20.685,8.552 L18.79,8.552 L18.545,11.009 L18.198,11.091 C17.515,11.253 16.86,11.524 16.256,11.896 L15.953,12.083 L14.042,10.52 L12.704,11.857 L14.269,13.771 L14.081,14.073 C13.709,14.674 13.438,15.327 13.275,16.015 L13.193,16.361 L10.736,16.606 L10.736,18.499 L13.193,18.745 L13.275,19.092 C13.438,19.778 13.709,20.432 14.081,21.033 L14.268,21.337 L12.704,23.248 L14.042,24.586 L15.953,23.022 L16.257,23.209 C16.858,23.581 17.512,23.852 18.198,24.015 L18.545,24.097 L18.79,26.554 Z M21.589,27.554 L17.886,27.554 L17.62,24.896 C17.071,24.738 16.542,24.52 16.042,24.242 L13.976,25.934 L11.356,23.314 L13.048,21.248 C12.771,20.748 12.552,20.219 12.394,19.67 L9.736,19.403 L9.736,15.702 L12.394,15.437 C12.552,14.887 12.771,14.358 13.048,13.858 L11.356,11.791 L13.976,9.172 L16.042,10.864 C16.544,10.586 17.072,10.367 17.62,10.209 L17.886,7.552 L21.589,7.552 L21.854,10.209 C22.402,10.367 22.931,10.586 23.433,10.864 L25.499,9.172 L28.118,11.791 L26.427,13.858 C26.704,14.358 26.923,14.887 27.081,15.437 L29.738,15.702 L29.738,19.403 L27.081,19.67 C26.923,20.219 26.704,20.748 26.427,21.248 L28.118,23.314 L25.499,25.934 L23.433,24.241 C22.931,24.52 22.402,24.738 21.854,24.896 L21.589,27.554 Z" id="Fill-384"></path>
            <path d="M19.737,14.253 C17.918,14.253 16.438,15.733 16.438,17.553 C16.438,19.373 17.918,20.854 19.737,20.854 C21.557,20.854 23.037,19.373 23.037,17.553 C23.037,15.733 21.557,14.253 19.737,14.253 Z M19.737,21.854 C17.366,21.854 15.438,19.924 15.438,17.553 C15.438,15.182 17.366,13.253 19.737,13.253 C22.108,13.253 24.037,15.182 24.037,17.553 C24.037,19.924 22.108,21.854 19.737,21.854 Z" id="Fill-385"></path>
            <path d="M2.911,19.245 L2.875,18.746 C2.847,18.352 2.833,17.954 2.833,17.553 C2.833,8.232 10.416,0.649 19.737,0.649 C26.292,0.649 32.313,4.492 35.075,10.438 L35.286,10.893 L34.379,11.313 L34.169,10.86 C31.569,5.265 25.904,1.649 19.737,1.649 C10.968,1.649 3.833,8.783 3.833,17.553 C3.833,17.931 3.847,18.305 3.873,18.676 L3.908,19.174 L2.911,19.245" id="Fill-386"></path>
            <path d="M19.737,34.457 C13.182,34.457 7.161,30.614 4.399,24.667 L4.188,24.213 L5.096,23.792 L5.306,24.245 C7.904,29.841 13.569,33.457 19.737,33.457 C28.507,33.457 35.642,26.322 35.642,17.553 C35.642,17.173 35.628,16.796 35.602,16.422 L35.566,15.923 L36.564,15.853 L36.6,16.352 C36.628,16.749 36.642,17.149 36.642,17.553 C36.642,26.874 29.059,34.457 19.737,34.457" id="Fill-387"></path>
            <polyline id="Fill-388" points="3.333 20.222 0.664 17.553 1.371 16.846 3.333 18.808 5.296 16.846 6.003 17.553 3.333 20.222"></polyline>
            <polyline id="Fill-389" points="38.104 18.075 36.142 16.113 34.179 18.075 33.472 17.368 36.142 14.699 38.811 17.368 38.104 18.075"></polyline>
        </g>
    </g>
</svg>