<?xml version="1.0" encoding="UTF-8"?>
<svg width="25px" height="21px" viewBox="0 0 25 21" version="1.1" xmlns="http://www.w3.org/2000/svg" xmlns:xlink="http://www.w3.org/1999/xlink">
    <!-- Generator: Sketch 52.2 (67145) - http://www.bohemiancoding.com/sketch -->
    <title>browser</title>
    <desc>Created with Sketch.</desc>
    <g id="Getting-Started" stroke="none" stroke-width="1" fill="none" fill-rule="evenodd">
        <g id="browser" fill-rule="nonzero">
            <path d="M24,4 L9,4 L9,1 L23.5,1 C23.7761424,1 24,1.22385763 24,1.5 L24,4 Z" id="Shape" fill="#242940"></path>
            <path d="M23.5,0 L1.5,0 C0.671938427,0.00088185546 0.00088185546,0.671938427 0,1.5 L0,19.5 C0.00088185546,20.3280616 0.671938427,20.9991181 1.5,21 L23.5,21 C24.3280616,20.9991181 24.9991181,20.3280616 25,19.5 L25,1.5 C24.9991181,0.671938427 24.3280616,0.00088185546 23.5,0 Z M1,1.5 C1,1.22385763 1.22385763,1 1.5,1 L8,1 L8,4 L1,4 L1,1.5 Z M24,19.5 C24,19.7761424 23.7761424,20 23.5,20 L1.5,20 C1.22385763,20 1,19.7761424 1,19.5 L1,5 L24,5 L24,19.5 Z M24,4 L9,4 L9,1 L23.5,1 C23.7761424,1 24,1.22385763 24,1.5 L24,4 Z" id="Shape" fill="#8075F2"></path>
            <rect id="Rectangle-path" fill="#8075F2" x="2" y="2" width="1" height="1"></rect>
            <rect id="Rectangle-path" fill="#8075F2" x="4" y="2" width="1" height="1"></rect>
            <rect id="Rectangle-path" fill="#8075F2" x="6" y="2" width="1" height="1"></rect>
        </g>
    </g>
</svg>