<?xml version="1.0" encoding="UTF-8"?>
<svg width="20px" height="25px" viewBox="0 0 20 25" version="1.1" xmlns="http://www.w3.org/2000/svg" xmlns:xlink="http://www.w3.org/1999/xlink">
    <!-- Generator: Sketch 52.4 (67378) - http://www.bohemiancoding.com/sketch -->
    <title>design</title>
    <desc>Created with Sketch.</desc>
    <g id="Page-1" stroke="none" stroke-width="1" fill="none" fill-rule="evenodd">
        <g id="design" fill="#000000" fill-rule="nonzero">
            <path d="M19.9568,24.2974 L12.79,8.1276 C13.8268978,7.23711191 14.2453487,5.82140791 13.8591949,4.51029715 C13.4730411,3.19918639 12.3540379,2.23629977 11,2.05 L11,0.5 C11,0.223857625 10.7761424,1.69088438e-17 10.5,0 C10.2238576,-1.69088438e-17 10,0.223857625 10,0.5 L10,2.05 C8.64644083,2.23668378 7.52797207,3.19938891 7.14188485,4.51007954 C6.75579763,5.82077016 7.17378409,7.23606549 8.21,8.1267 L4.3842,16.7586 C2.23924452,14.9578002 1.0003991,12.3006631 1,9.5 C1,9.22385763 0.776142375,9 0.5,9 C0.223857625,9 0,9.22385763 0,9.5 C0.00126936273,12.6963473 1.46126916,15.7173502 3.965,17.7043 L1.0428,24.2973 C0.988807674,24.4185904 0.985344824,24.5563901 1.03317689,24.6802393 C1.08100896,24.8040885 1.17619689,24.9037881 1.2977,24.9573 C1.36134674,24.9857046 1.43030309,25.0002594 1.5,25 C1.69773917,24.9999549 1.87687609,24.8833787 1.957,24.7026 L4.794,18.302 C8.2448855,20.5539934 12.6971972,20.566919 16.1611,18.335 C16.1757694,18.3225275 16.189662,18.3091692 16.2027,18.295 L19.0427,24.703 C19.1229879,24.8837218 19.3022464,25.0001437 19.5,25 C19.5696512,25.0001367 19.6385374,24.98548 19.7021,24.957 C19.8234661,24.9034482 19.9185327,24.8038007 19.9663179,24.6800506 C20.0141032,24.5563005 20.0106786,24.4186214 19.9568,24.2974 Z M8,5.5 C8,4.11928813 9.11928813,3 10.5,3 C11.8807119,3 13,4.11928813 13,5.5 C13,6.88071187 11.8807119,8 10.5,8 C9.11995061,7.99840192 8.00159808,6.88004939 8,5.5 Z M15.62,17.4932 C12.4373198,19.542216 8.33997458,19.4982456 5.202,17.3814 L9.058,8.6814 C9.97251117,9.10571926 11.0274888,9.10571926 11.942,8.6814 L15.8156,17.4208 C15.7460093,17.4308121 15.6793385,17.4554898 15.62,17.4932 Z" id="Shape"></path>
        </g>
    </g>
</svg>