<?xml version="1.0" encoding="UTF-8" standalone="no"?>
<svg width="181px" height="308px" viewBox="0 0 181 308" version="1.1" xmlns="http://www.w3.org/2000/svg" xmlns:xlink="http://www.w3.org/1999/xlink">
    <!-- Generator: Sketch 47.1 (45422) - http://www.bohemiancoding.com/sketch -->
    <title>first</title>
    <desc>Created with Sketch.</desc>
    <defs>
        <polygon id="path-1" points="0 0 83.8164062 26.859375 83.8164062 108.859375 0 82"></polygon>
        <polygon id="path-2" points="0 83 83.8164062 109.859375 83.8164062 191.859375 0 165"></polygon>
        <polygon id="path-3" points="0 166 83.8164062 192.859375 83.8164062 274.859375 0 248"></polygon>
        <polygon id="path-4" points="85 0 168.816406 26.859375 168.816406 108.859375 85 82"></polygon>
        <polygon id="path-5" points="85 83 168.816406 109.859375 168.816406 191.859375 85 165"></polygon>
        <polygon id="path-6" points="85 166 168.816406 192.859375 168.816406 274.859375 85 248"></polygon>
        <polygon id="path-7" points="1.64892578 26.3853764 86.8188477 0.976074219 168.21875 25.1220703 84.0283203 52.8017578"></polygon>
    </defs>
    <g id="Page-1" stroke="none" stroke-width="1" fill="none" fill-rule="evenodd">
        <g id="Artboard" transform="translate(-32.000000, -319.000000)">
            <g id="Group-2" transform="translate(38.000000, 80.000000)">
                <g id="first" transform="translate(0.000000, 241.000000)">
                    <g id="Group" transform="translate(0.000000, 28.000000)">
                        <g id="Rectangle">
                            <use fill="#FF6200" fill-rule="evenodd" xlink:href="#path-1"></use>
                            <path stroke="#182E47" stroke-width="2" d="M-1,-1.37054596 L84.8164062,26.1297388 L84.8164062,110.229921 L-1,82.7296362 L-1,-1.37054596 Z"></path>
                        </g>
                        <g id="Rectangle">
                            <use fill="#FF6200" fill-rule="evenodd" xlink:href="#path-2"></use>
                            <path stroke="#182E47" stroke-width="2" d="M-1,81.629454 L84.8164062,109.129739 L84.8164062,193.229921 L-1,165.729636 L-1,81.629454 Z"></path>
                        </g>
                        <g id="Rectangle">
                            <use fill="#FF6200" fill-rule="evenodd" xlink:href="#path-3"></use>
                            <path stroke="#182E47" stroke-width="2" d="M-1,164.629454 L84.8164062,192.129739 L84.8164062,276.229921 L-1,248.729636 L-1,164.629454 Z"></path>
                        </g>
                        <g id="Rectangle" transform="translate(126.908203, 54.429687) scale(-1, 1) translate(-126.908203, -54.429687) ">
                            <use fill="#FFA100" fill-rule="evenodd" xlink:href="#path-4"></use>
                            <path stroke="#182E47" stroke-width="2" d="M84,-1.37054596 L169.816406,26.1297388 L169.816406,110.229921 L84,82.7296362 L84,-1.37054596 Z"></path>
                        </g>
                        <g id="Rectangle" transform="translate(126.908203, 137.429687) scale(-1, 1) translate(-126.908203, -137.429687) ">
                            <use fill="#FFA100" fill-rule="evenodd" xlink:href="#path-5"></use>
                            <path stroke="#182E47" stroke-width="2" d="M84,81.629454 L169.816406,109.129739 L169.816406,193.229921 L84,165.729636 L84,81.629454 Z"></path>
                        </g>
                        <g id="Rectangle" transform="translate(126.908203, 220.429687) scale(-1, 1) translate(-126.908203, -220.429687) ">
                            <use fill="#FFA100" fill-rule="evenodd" xlink:href="#path-6"></use>
                            <path stroke="#182E47" stroke-width="2" d="M84,164.629454 L169.816406,192.129739 L169.816406,276.229921 L84,248.729636 L84,164.629454 Z"></path>
                        </g>
                    </g>
                    <g id="Rectangle">
                        <use fill="#FF6200" fill-rule="evenodd" xlink:href="#path-7"></use>
                        <path stroke="#182E47" stroke-width="2" d="M-1.73345972,26.3509118 L86.8180318,-0.0672362694 L171.569723,25.073015 L84.0321758,53.8531501 L-1.73345972,26.3509118 Z"></path>
                    </g>
                </g>
            </g>
        </g>
    </g>
</svg>