<?xml version="1.0" encoding="UTF-8" standalone="no"?>
<svg width="183px" height="308px" viewBox="0 0 183 308" version="1.1" xmlns="http://www.w3.org/2000/svg" xmlns:xlink="http://www.w3.org/1999/xlink">
    <!-- Generator: Sketch 47.1 (45422) - http://www.bohemiancoding.com/sketch -->
    <title>middle</title>
    <desc>Created with Sketch.</desc>
    <defs>
        <polygon id="path-1" points="3.63991143 170.76645 92.4841499 168.266547 164.860974 212.657633 76.3752336 217.604071"></polygon>
        <polygon id="path-2" points="85 28 168.816406 54.859375 168.816406 136.859375 85 110"></polygon>
        <polygon id="path-3" points="85 194 168.816406 220.859375 168.816406 302.859375 85 276"></polygon>
        <polygon id="path-4" points="2.64892578 26.3853764 87.8188477 0.976074219 169.21875 25.1220703 85.0283203 52.8017578"></polygon>
    </defs>
    <g id="Page-1" stroke="none" stroke-width="1" fill="none" fill-rule="evenodd">
        <g id="Artboard" transform="translate(-118.000000, -481.000000)">
            <g id="Group-2" transform="translate(38.000000, 80.000000)">
                <g id="middle" transform="translate(87.000000, 403.000000)">
                    <g id="Rectangle" transform="translate(84.250443, 192.935309) rotate(-15.000000) translate(-84.250443, -192.935309) ">
                        <use fill="#FF6200" fill-rule="evenodd" xlink:href="#path-1"></use>
                        <path stroke="#182E47" stroke-width="2" d="M0.381698017,169.857734 L92.7533905,167.258575 L168.110462,213.477545 L76.1068373,218.620636 L0.381698017,169.857734 Z"></path>
                    </g>
                    <g id="Rectangle" transform="translate(126.908203, 82.429687) scale(-1, 1) translate(-126.908203, -82.429687) ">
                        <use fill="#FFA100" fill-rule="evenodd" xlink:href="#path-2"></use>
                        <path stroke="#182E47" stroke-width="2" d="M84,26.629454 L169.816406,54.1297388 L169.816406,138.229921 L84,110.729636 L84,26.629454 Z"></path>
                    </g>
                    <g id="Rectangle" transform="translate(126.908203, 248.429687) scale(-1, 1) translate(-126.908203, -248.429687) ">
                        <use fill="#FFA100" fill-rule="evenodd" xlink:href="#path-3"></use>
                        <path stroke="#182E47" stroke-width="2" d="M84,192.629454 L169.816406,220.129739 L169.816406,304.229921 L84,276.729636 L84,192.629454 Z"></path>
                    </g>
                    <g id="Rectangle">
                        <use fill="#FF6200" fill-rule="evenodd" xlink:href="#path-4"></use>
                        <path stroke="#182E47" stroke-width="2" d="M-0.733459716,26.3509118 L87.8180318,-0.0672362694 L172.569723,25.073015 L85.0321758,53.8531501 L-0.733459716,26.3509118 Z"></path>
                    </g>
                </g>
            </g>
        </g>
    </g>
</svg>