<?xml version="1.0" encoding="UTF-8"?>
<svg width="14px" height="25px" viewBox="0 0 14 25" version="1.1" xmlns="http://www.w3.org/2000/svg" xmlns:xlink="http://www.w3.org/1999/xlink">
    <!-- Generator: Sketch 52.4 (67378) - http://www.bohemiancoding.com/sketch -->
    <title>mobile</title>
    <desc>Created with Sketch.</desc>
    <defs>
        <linearGradient x1="50%" y1="0%" x2="50%" y2="100%" id="linearGradient-1">
            <stop stop-color="#FFA200" offset="0%"></stop>
            <stop stop-color="#FF6100" offset="100%"></stop>
        </linearGradient>
    </defs>
    <g id="Page-1" stroke="none" stroke-width="1" fill="none" fill-rule="evenodd">
        <g id="Artboard" transform="translate(-87.000000, -235.000000)" fill="url(#linearGradient-1)" fill-rule="nonzero">
            <g id="mobile" transform="translate(87.000000, 235.000000)">
                <path d="M12.5,0 L1.5,0 C0.671938427,0.00088185546 0.00088185546,0.671938427 0,1.5 L0,23.5 C0.00088185546,24.3280616 0.671938427,24.9991181 1.5,25 L12.5,25 C13.3280616,24.9991181 13.9991181,24.3280616 14,23.5 L14,1.5 C13.9991181,0.671938427 13.3280616,0.00088185546 12.5,0 Z M13,23.5 C13,23.7761424 12.7761424,24 12.5,24 L1.5,24 C1.22385763,24 1,23.7761424 1,23.5 L1,20 L13,20 L13,23.5 Z M13,19 L1,19 L1,1.5 C1,1.22385763 1.22385763,1 1.5,1 L12.5,1 C12.7761424,1 13,1.22385763 13,1.5 L13,19 Z M6,22 C6,21.4477153 6.44771525,21 7,21 C7.55228475,21 8,21.4477153 8,22 C8,22.5522847 7.55228475,23 7,23 C6.44771525,23 6,22.5522847 6,22 Z M9,3.5 C9,3.77614237 8.77614237,4 8.5,4 L5.5,4 C5.22385763,4 5,3.77614237 5,3.5 C5,3.22385763 5.22385763,3 5.5,3 L8.5,3 C8.77614237,3 9,3.22385763 9,3.5 Z" id="Shape"></path>
            </g>
        </g>
    </g>
</svg>