<?xml version="1.0" encoding="UTF-8"?>
<svg width="48px" height="44px" viewBox="0 0 48 44" version="1.1" xmlns="http://www.w3.org/2000/svg" xmlns:xlink="http://www.w3.org/1999/xlink">
    <!-- Generator: Sketch 52.5 (67469) - http://www.bohemiancoding.com/sketch -->
    <title>people</title>
    <desc>Created with Sketch.</desc>
    <g id="Page-1" stroke="none" stroke-width="1" fill="none" fill-rule="evenodd">
        <g id="people" fill="#152C4D">
            <path d="M10.161,26.123 C8.011,26.123 5.862,26.941 4.226,28.578 C2.64,30.163 1.767,32.271 1.767,34.513 C1.767,36.755 2.64,38.863 4.226,40.449 C5.811,42.034 7.919,42.908 10.161,42.908 C12.403,42.908 14.511,42.034 16.097,40.449 C19.369,37.176 19.369,31.851 16.097,28.578 C14.46,26.941 12.311,26.123 10.161,26.123 Z M10.161,43.908 C7.652,43.908 5.292,42.93 3.519,41.156 C1.744,39.382 0.767,37.022 0.767,34.513 C0.767,32.004 1.744,29.645 3.519,27.871 C7.181,24.209 13.141,24.208 16.804,27.871 C20.466,31.534 20.466,37.493 16.804,41.156 C15.029,42.93 12.67,43.908 10.161,43.908 Z" id="Fill-284"></path>
            <path d="M17.019,40.789 L16.019,40.789 L16.019,38.989 C16.019,38.41 15.793,37.864 15.383,37.454 C14.973,37.044 14.428,36.818 13.849,36.818 L12.184,36.818 L12.184,35.818 L13.849,35.818 C14.695,35.818 15.491,36.148 16.09,36.747 C16.689,37.347 17.019,38.143 17.019,38.989 L17.019,40.789" id="Fill-285"></path>
            <path d="M4.662,41.08 L3.662,41.08 L3.662,38.983 C3.662,38.138 3.991,37.343 4.589,36.746 C5.187,36.147 5.981,35.818 6.827,35.818 L12.501,35.818 L12.501,36.818 L6.827,36.818 C6.249,36.818 5.705,37.043 5.296,37.453 C4.887,37.861 4.662,38.405 4.662,38.983 L4.662,41.08" id="Fill-286"></path>
            <path d="M10.34,29.385 C9.084,29.385 8.062,30.408 8.062,31.664 C8.062,32.92 9.084,33.942 10.34,33.942 C11.597,33.942 12.619,32.92 12.619,31.664 C12.619,30.408 11.597,29.385 10.34,29.385 Z M10.34,34.942 C8.532,34.942 7.062,33.472 7.062,31.664 C7.062,29.856 8.532,28.385 10.34,28.385 C12.148,28.385 13.619,29.856 13.619,31.664 C13.619,33.472 12.148,34.942 10.34,34.942 Z" id="Fill-287"></path>
            <path d="M38.158,26.123 C36.008,26.123 33.859,26.941 32.222,28.578 C28.95,31.851 28.95,37.176 32.222,40.449 C33.808,42.034 35.916,42.908 38.158,42.908 C40.4,42.908 42.508,42.034 44.093,40.449 C45.679,38.863 46.552,36.755 46.552,34.513 C46.552,32.271 45.679,30.163 44.093,28.578 C42.457,26.941 40.307,26.123 38.158,26.123 Z M38.158,43.908 C35.648,43.908 33.29,42.93 31.515,41.156 C27.853,37.493 27.853,31.534 31.515,27.871 C35.179,24.208 41.139,24.209 44.8,27.871 C46.575,29.645 47.552,32.004 47.552,34.513 C47.552,37.022 46.575,39.382 44.8,41.156 C43.026,42.93 40.667,43.908 38.158,43.908 Z" id="Fill-288"></path>
            <path d="M45.016,40.789 L44.016,40.789 L44.016,38.989 C44.016,38.409 43.79,37.864 43.38,37.454 C42.97,37.044 42.424,36.818 41.845,36.818 L40.181,36.818 L40.181,35.818 L41.845,35.818 C42.691,35.818 43.487,36.148 44.087,36.747 C44.686,37.346 45.016,38.142 45.016,38.989 L45.016,40.789" id="Fill-289"></path>
            <path d="M32.659,41.08 L31.659,41.08 L31.659,38.983 C31.659,38.137 31.988,37.343 32.586,36.746 C33.183,36.148 33.978,35.818 34.823,35.818 L40.498,35.818 L40.498,36.818 L34.823,36.818 C34.245,36.818 33.702,37.043 33.293,37.453 C32.884,37.861 32.659,38.405 32.659,38.983 L32.659,41.08" id="Fill-290"></path>
            <path d="M38.337,29.385 C37.081,29.385 36.059,30.408 36.059,31.664 C36.059,32.92 37.081,33.942 38.337,33.942 C39.594,33.942 40.616,32.92 40.616,31.664 C40.616,30.408 39.594,29.385 38.337,29.385 Z M38.337,34.942 C36.529,34.942 35.059,33.472 35.059,31.664 C35.059,29.856 36.529,28.385 38.337,28.385 C40.146,28.385 41.616,29.856 41.616,31.664 C41.616,33.472 40.146,34.942 38.337,34.942 Z" id="Fill-291"></path>
            <path d="M24.16,1.399 C22.01,1.399 19.86,2.217 18.224,3.853 C14.951,7.126 14.951,12.452 18.224,15.725 C21.497,18.998 26.823,18.996 30.095,15.725 C33.368,12.452 33.368,7.126 30.095,3.853 C28.458,2.217 26.309,1.399 24.16,1.399 Z M24.159,19.178 C21.754,19.178 19.348,18.263 17.517,16.432 C13.854,12.769 13.854,6.809 17.517,3.146 C21.18,-0.515 27.139,-0.516 30.802,3.146 C34.465,6.809 34.465,12.769 30.802,16.432 C28.971,18.263 26.565,19.178 24.159,19.178 Z" id="Fill-292"></path>
            <path d="M31.017,16.065 L30.017,16.065 L30.017,14.265 C30.017,13.685 29.792,13.14 29.381,12.73 C28.972,12.32 28.427,12.094 27.847,12.094 L26.182,12.094 L26.182,11.094 L27.847,11.094 C28.694,11.094 29.49,11.424 30.088,12.023 C30.687,12.621 31.017,13.417 31.017,14.265 L31.017,16.065" id="Fill-293"></path>
            <path d="M18.661,16.355 L17.661,16.355 L17.661,14.258 C17.661,13.413 17.99,12.618 18.587,12.021 C19.184,11.423 19.979,11.094 20.825,11.094 L26.5,11.094 L26.5,12.094 L20.825,12.094 C20.246,12.094 19.703,12.319 19.294,12.728 C18.886,13.136 18.661,13.68 18.661,14.258 L18.661,16.355" id="Fill-294"></path>
            <path d="M24.339,4.661 C23.083,4.661 22.06,5.683 22.06,6.939 C22.06,8.196 23.083,9.218 24.339,9.218 C25.595,9.218 26.618,8.196 26.618,6.939 C26.618,5.683 25.595,4.661 24.339,4.661 Z M24.339,10.218 C22.531,10.218 21.06,8.748 21.06,6.939 C21.06,5.131 22.531,3.661 24.339,3.661 C26.147,3.661 27.618,5.131 27.618,6.939 C27.618,8.748 26.147,10.218 24.339,10.218 Z" id="Fill-295"></path>
            <polyline id="Fill-296" points="31.486 29.386 24.16 23.861 16.862 29.356 16.26 28.557 24.16 22.609 32.088 28.587 31.486 29.386"></polyline>
            <polygon id="Fill-297" points="23.674 23.792 24.674 23.792 24.674 18.182 23.674 18.182"></polygon>
        </g>
    </g>
</svg>