<?xml version="1.0" encoding="UTF-8"?>
<svg width="17px" height="23px" viewBox="0 0 17 23" version="1.1" xmlns="http://www.w3.org/2000/svg" xmlns:xlink="http://www.w3.org/1999/xlink">
    <!-- Generator: Sketch 52.4 (67378) - http://www.bohemiancoding.com/sketch -->
    <title>plan</title>
    <desc>Created with Sketch.</desc>
    <g id="Page-1" stroke="none" stroke-width="1" fill="none" fill-rule="evenodd">
        <g id="plan" fill="#000000" fill-rule="nonzero">
            <path d="M15.7395908,5.49 L9.99959077,2.21 L9.99959077,0.5 C9.99959077,0.223857625 9.77573314,0 9.49959077,0 C4.89209077,0 0.999590767,3.4346 0.999590767,7.5 C1.02272322,9.04063344 1.43131937,10.5509437 2.18809077,11.8931 C2.66077171,12.6857406 2.93887119,13.5791202 2.99959077,14.5 C2.86852878,15.5764773 2.38828789,16.5803396 1.63239077,17.3579 C1.23779077,17.8574 0.999590767,18.1587 0.999590767,18.5 C0.999590767,18.7761424 1.22344839,19 1.49959077,19 L14.4995908,19 C14.7757331,19 14.9995908,18.7761424 14.9995908,18.5 C14.8793566,17.446874 14.3522995,16.482439 13.5308908,15.8125 C12.001512,14.3938218 11.0974737,12.4263148 11.0171908,10.3418 C11.7475623,10.5540012 12.490564,10.7200294 13.2417908,10.8389 C14.1341081,10.9806403 15.0335679,10.6305638 15.5952908,9.9229 L16.8911908,8.2881 C16.9614294,8.19981556 16.9996447,8.0903167 16.9995908,7.9775 L16.9995908,7.6606 C16.9986646,6.76361827 16.5180376,5.93564289 15.7395908,5.49 Z M15.9995908,7.8032 L14.8120908,9.3012 C14.4781625,9.72875863 13.9373274,9.93972267 13.4020908,9.8512 C12.1344908,9.6451 9.85719077,9.1495 8.85329077,8.1461 C8.65710132,7.9566139 8.34524838,7.95932381 8.15238148,8.15219071 C7.95951458,8.34505761 7.95680466,8.65691056 8.14629077,8.8531 C8.684505,9.35009467 9.31520566,9.73639118 10.0024908,9.99 C9.99187238,12.4509899 11.0037585,14.8058643 12.7963908,16.492 C13.2613994,16.9184911 13.6400135,17.4304621 13.9115908,18 L2.39899077,18 L2.41659077,17.978 C3.3200081,17.0294314 3.8776442,15.8042524 3.99959077,14.5 C3.94441787,13.426075 3.63120618,12.3812699 3.08649077,11.4541 C2.39840141,10.248041 2.0246409,8.88831474 1.99959077,7.5 C1.99959077,4.1221 5.15679077,1.2466 8.99959077,1.0151 L8.99959077,2.5 C8.99942487,2.67948567 9.09564614,2.84523827 9.25159077,2.9341 L15.2437908,6.3584 C15.710424,6.62611836 15.9985968,7.12262355 15.9995908,7.6606 L15.9995908,7.8032 Z M10.9995908,5.5 C10.9995908,5.77614237 10.7757331,6 10.4995908,6 C10.2234484,6 9.99959077,5.77614237 9.99959077,5.5 C9.99959077,5.22385763 10.2234484,5 10.4995908,5 C10.7757331,5 10.9995908,5.22385763 10.9995908,5.5 Z M15.4211908,20.6838 C15.2850728,20.2754061 14.9028715,19.9999537 14.4723908,20 L1.52699077,20 C1.09658365,20.0000398 0.714485495,20.275476 0.578390767,20.6838 L0.0256907667,22.3418 C-0.0251436807,22.4942109 0.000358532321,22.6617654 0.0942353045,22.7921509 C0.188112077,22.9225364 0.338925864,22.9998673 0.499590767,23 L15.4995908,23 C15.6603439,23.000028 15.8113065,22.9227637 15.9053,22.7923536 C15.9992935,22.6619436 16.024853,22.4942945 15.9739908,22.3418 L15.4211908,20.6838 Z M1.19359077,22 L1.52699077,21 L14.4723908,21 L14.8056908,22 L1.19359077,22 Z" id="Shape"></path>
        </g>
    </g>
</svg>