<?xml version="1.0" encoding="UTF-8"?>
<svg width="25px" height="22px" viewBox="0 0 25 22" version="1.1" xmlns="http://www.w3.org/2000/svg" xmlns:xlink="http://www.w3.org/1999/xlink">
    <!-- Generator: Sketch 52.4 (67378) - http://www.bohemiancoding.com/sketch -->
    <title>prototype</title>
    <desc>Created with Sketch.</desc>
    <defs>
        <linearGradient x1="50%" y1="0%" x2="50%" y2="100%" id="linearGradient-1">
            <stop stop-color="#FFA200" offset="0%"></stop>
            <stop stop-color="#FF6100" offset="100%"></stop>
        </linearGradient>
    </defs>
    <g id="Page-1" stroke="none" stroke-width="1" fill="none" fill-rule="evenodd">
        <g id="Artboard" transform="translate(-86.000000, -66.000000)" fill="url(#linearGradient-1)" fill-rule="nonzero">
            <g id="prototype" transform="translate(86.000000, 66.000000)">
                <path d="M23.5,4.4408921e-16 L18.5,4.4408921e-16 C17.6715729,0 17,0.671572875 17,1.5 L17,6.05 C16.0181568,6.25086244 15.2508624,7.01815684 15.05,8 L13,8 C12.4480122,8.00071619 12.0007162,8.44801218 12,9 L12,13 L9.95,13 C9.74916187,12.0181438 8.98185624,11.2508381 8,11.05 L8,6.5 C8,5.67157288 7.32842712,5 6.5,5 L1.5,5 C0.671572875,5 1.01453063e-16,5.67157288 0,6.5 L0,20.5 C1.01453063e-16,21.3284271 0.671572875,22 1.5,22 L6.5,22 C7.32842712,22 8,21.3284271 8,20.5 L8,15.95 C8.98184316,15.7491376 9.74913756,14.9818432 9.95,14 L12,14 C12.5519878,13.9992838 12.9992838,13.5519878 13,13 L13,9 L15.05,9 C15.2508868,9.98183007 16.0181699,10.7491132 17,10.95 L17,15.5 C17,16.3284271 17.6715729,17 18.5,17 L23.5,17 C24.3284271,17 25,16.3284271 25,15.5 L25,1.5 C25,0.671572875 24.3284271,1.77635684e-15 23.5,4.4408921e-16 Z M6.5,21 L1.5,21 C1.22399468,20.9996694 1.00033061,20.7760053 1,20.5 L1,6.5 C1.00033061,6.22399468 1.22399468,6.00033061 1.5,6 L6.5,6 C6.77600532,6.00033061 6.99966939,6.22399468 7,6.5 L7,11.05 C5.83483801,11.2865962 4.99749372,12.3110592 4.99749372,13.5 C4.99749372,14.6889408 5.83483801,15.7134038 7,15.95 L7,20.5 C6.99966939,20.7760053 6.77600532,20.9996694 6.5,21 Z M7.5,15 C6.67157288,15 6,14.3284271 6,13.5 C6,12.6715729 6.67157288,12 7.5,12 C8.32842712,12 9,12.6715729 9,13.5 C8.99906315,14.3280388 8.32803876,14.9990631 7.5,15 Z M16,8.5 C16,7.67157288 16.6715729,7 17.5,7 C18.3284271,7 19,7.67157288 19,8.5 C19,9.32842712 18.3284271,10 17.5,10 C16.6719612,9.99906315 16.0009369,9.32803876 16,8.5 Z M24,15.5 C23.9996694,15.7760053 23.7760053,15.9996694 23.5,16 L18.5,16 C18.2239947,15.9996694 18.0003306,15.7760053 18,15.5 L18,10.95 C19.165162,10.7134038 20.0025063,9.68894081 20.0025063,8.5 C20.0025063,7.31105919 19.165162,6.28659623 18,6.05 L18,1.5 C18.0003306,1.22399468 18.2239947,1.00033061 18.5,1 L23.5,1 C23.7760053,1.00033061 23.9996694,1.22399468 24,1.5 L24,15.5 Z" id="Shape"></path>
            </g>
        </g>
    </g>
</svg>