<?xml version="1.0" encoding="UTF-8"?>
<svg width="25px" height="24px" viewBox="0 0 25 24" version="1.1" xmlns="http://www.w3.org/2000/svg" xmlns:xlink="http://www.w3.org/1999/xlink">
    <!-- Generator: Sketch 52.4 (67378) - http://www.bohemiancoding.com/sketch -->
    <title>pwa</title>
    <desc>Created with Sketch.</desc>
    <g id="Page-1" stroke="none" stroke-width="1" fill="none" fill-rule="evenodd">
        <g id="pwa" fill="#000000" fill-rule="nonzero">
            <path d="M15.5,23 L14,23 L14,20 L14.5,20 C14.7761424,20 15,19.7761424 15,19.5 C15,19.2238576 14.7761424,19 14.5,19 L1.5,19 C1.22385763,19 1,18.7761424 1,18.5 L1,16 L14.5,16 C14.7761424,16 15,15.7761424 15,15.5 C15,15.2238576 14.7761424,15 14.5,15 L1,15 L1,1.5 C1,1.22385763 1.22385763,1 1.5,1 L21.5,1 C21.7761424,1 22,1.22385763 22,1.5 L22,9.5 C22,9.77614237 22.2238576,10 22.5,10 C22.7761424,10 23,9.77614237 23,9.5 L23,1.5 C22.9991181,0.671938427 22.3280616,0.00088185546 21.5,0 L1.5,0 C0.671938427,0.00088185546 0.00088185546,0.671938427 0,1.5 L0,18.5 C0.00088185546,19.3280616 0.671938427,19.9991181 1.5,20 L9,20 L9,23 L7.5,23 C7.22385763,23 7,23.2238576 7,23.5 C7,23.7761424 7.22385763,24 7.5,24 L15.5,24 C15.7761424,24 16,23.7761424 16,23.5 C16,23.2238576 15.7761424,23 15.5,23 Z M13,23 L10,23 L10,20 L13,20 L13,23 Z M24,12 L18,12 C17.4477153,12 17,12.4477153 17,13 L17,23 C17,23.5522847 17.4477153,24 18,24 L24,24 C24.5522847,24 25,23.5522847 25,23 L25,13 C25,12.4477153 24.5522847,12 24,12 Z M24,23 L18,23 L18,13 L24,13 L24,23 Z M20,21.5 C20,21.2238576 20.2238576,21 20.5,21 L21.5,21 C21.7761424,21 22,21.2238576 22,21.5 C22,21.7761424 21.7761424,22 21.5,22 L20.5,22 C20.2238576,22 20,21.7761424 20,21.5 Z" id="Shape"></path>
        </g>
    </g>
</svg>