<?xml version="1.0" encoding="UTF-8"?>
<svg width="21px" height="25px" viewBox="0 0 21 25" version="1.1" xmlns="http://www.w3.org/2000/svg" xmlns:xlink="http://www.w3.org/1999/xlink">
    <!-- Generator: Sketch 52.4 (67378) - http://www.bohemiancoding.com/sketch -->
    <title>track</title>
    <desc>Created with Sketch.</desc>
    <g id="Page-1" stroke="none" stroke-width="1" fill="none" fill-rule="evenodd">
        <g id="track" fill="#000000" fill-rule="nonzero">
            <path d="M3.51461571,18 L2.51461571,18 C1.68618859,18 1.01461571,18.6715729 1.01461571,19.5 L1.01461571,23.5 C1.01461571,24.3284271 1.68618859,25 2.51461571,25 L3.51461571,25 C4.34304284,25 5.01461571,24.3284271 5.01461571,23.5 L5.01461571,19.5 C5.01461571,18.6715729 4.34304284,18 3.51461571,18 Z M4.01461571,23.5 C4.0142851,23.7760053 3.79062103,23.9996694 3.51461571,24 L2.51461571,24 C2.2386104,23.9996694 2.01494632,23.7760053 2.01461571,23.5 L2.01461571,19.5 C2.01494632,19.2239947 2.2386104,19.0003306 2.51461571,19 L3.51461571,19 C3.79062103,19.0003306 4.0142851,19.2239947 4.01461571,19.5 L4.01461571,23.5 Z M10.5146157,13 L9.51461571,13 C8.68618859,13 8.01461571,13.6715729 8.01461571,14.5 L8.01461571,23.5 C8.01461571,24.3284271 8.68618859,25 9.51461571,25 L10.5146157,25 C11.3430428,25 12.0146157,24.3284271 12.0146157,23.5 L12.0146157,14.5 C12.0146157,13.6715729 11.3430428,13 10.5146157,13 Z M11.0146157,23.5 C11.0142851,23.7760053 10.790621,23.9996694 10.5146157,24 L9.51461571,24 C9.2386104,23.9996694 9.01494632,23.7760053 9.01461571,23.5 L9.01461571,14.5 C9.01494632,14.2239947 9.2386104,14.0003306 9.51461571,14 L10.5146157,14 C10.790621,14.0003306 11.0142851,14.2239947 11.0146157,14.5 L11.0146157,23.5 Z M17.5146157,7 L16.5146157,7 C15.6861886,7 15.0146157,7.67157288 15.0146157,8.5 L15.0146157,23.5 C15.0146157,24.3284271 15.6861886,25 16.5146157,25 L17.5146157,25 C18.3430428,25 19.0146157,24.3284271 19.0146157,23.5 L19.0146157,8.5 C19.0146157,7.67157288 18.3430428,7 17.5146157,7 Z M18.0146157,23.5 C18.0142851,23.7760053 17.790621,23.9996694 17.5146157,24 L16.5146157,24 C16.2386104,23.9996694 16.0149463,23.7760053 16.0146157,23.5 L16.0146157,8.5 C16.0149463,8.22399468 16.2386104,8.00033061 16.5146157,8 L17.5146157,8 C17.790621,8.00033061 18.0142851,8.22399468 18.0146157,8.5 L18.0146157,23.5 Z M20.0146157,0.5 L20.0146157,4.5 C20.0146157,4.77614237 19.7907581,5 19.5146157,5 C19.2384733,5 19.0146157,4.77614237 19.0146157,4.5 L19.0146157,1.7488 C11.8531157,9.0527 0.862315711,14.8818 0.747015711,14.9424 C0.588280002,15.0325949 0.393003234,15.029101 0.23759569,14.9332853 C0.0821881471,14.8374696 -0.00864053363,14.6645668 0.000650206277,14.4822324 C0.00994094619,14.299898 0.117873889,14.137123 0.282215711,14.0576 C0.394615711,13.998 11.3057157,8.21 18.3490157,1 L15.5146157,1 C15.2384733,1 15.0146157,0.776142375 15.0146157,0.5 C15.0146157,0.223857625 15.2384733,5.07265313e-17 15.5146157,0 L19.5146157,0 C19.5387871,0.00293431153 19.5626929,0.00774890359 19.5861157,0.0144 C19.6232908,0.017507771 19.6599739,0.0249585191 19.6954157,0.0366 C19.7281552,0.0515014925 19.7590884,0.0700882599 19.7876157,0.092 C19.8106089,0.103563672 19.8326452,0.116939246 19.8535157,0.132 L19.8602157,0.1413 C19.8841384,0.167684842 19.9051279,0.196587289 19.9228157,0.2275 C19.9412059,0.250210829 19.9576002,0.274467642 19.9718157,0.3 C19.9789146,0.322920561 19.9843948,0.346311458 19.9882157,0.37 C20.0012128,0.408850341 20.0093743,0.449153886 20.0125157,0.49 L20.0146157,0.5 Z" id="Shape"></path>
        </g>
    </g>
</svg>