<?xml version="1.0" encoding="UTF-8"?>
<svg width="51px" height="44px" viewBox="0 0 51 44" version="1.1" xmlns="http://www.w3.org/2000/svg" xmlns:xlink="http://www.w3.org/1999/xlink">
    <!-- Generator: Sketch 52.5 (67469) - http://www.bohemiancoding.com/sketch -->
    <title>user</title>
    <desc>Created with Sketch.</desc>
    <g id="Page-1" stroke="none" stroke-width="1" fill="none" fill-rule="evenodd">
        <g id="user" fill="#152C4D">
            <polyline id="Fill-312" points="30.812 43.06 20.389 43.06 20.389 25.628 21.389 25.628 21.389 42.06 29.812 42.06 29.812 25.628 30.812 25.628 30.812 43.06"></polyline>
            <polygon id="Fill-313" points="25.101 43.06 26.101 43.06 26.101 29.516 25.101 29.516"></polygon>
            <path d="M21.05,28.387 L17.35,28.387 L17.35,14.69 C17.35,12.394 19.218,10.525 21.515,10.525 L28.774,10.525 L28.774,11.525 L21.515,11.525 C19.77,11.525 18.35,12.945 18.35,14.69 L18.35,27.387 L21.05,27.387 L21.05,28.387" id="Fill-314"></path>
            <path d="M33.851,28.387 L30.15,28.387 L30.15,27.387 L32.851,27.387 L32.851,14.69 C32.851,12.945 31.432,11.525 29.687,11.525 L22.18,11.525 L22.18,10.525 L29.687,10.525 C31.982,10.525 33.851,12.394 33.851,14.69 L33.851,28.387" id="Fill-315"></path>
            <path d="M25.601,1.4 C23.732,1.4 22.213,2.92 22.213,4.788 C22.213,6.655 23.732,8.175 25.601,8.175 C27.468,8.175 28.987,6.655 28.987,4.788 C28.987,2.92 27.468,1.4 25.601,1.4 Z M25.601,9.175 C23.182,9.175 21.213,7.207 21.213,4.788 C21.213,2.369 23.182,0.4 25.601,0.4 C28.02,0.4 29.987,2.369 29.987,4.788 C29.987,7.207 28.02,9.175 25.601,9.175 Z" id="Fill-316"></path>
            <polygon id="Fill-317" points="25.101 15.661 26.101 15.661 26.101 14.434 25.101 14.434"></polygon>
            <polygon id="Fill-318" points="25.101 18.229 26.101 18.229 26.101 17.001 25.101 17.001"></polygon>
            <polygon id="Fill-319" points="25.101 20.797 26.101 20.797 26.101 19.568 25.101 19.568"></polygon>
            <polyline id="Fill-320" points="40.57 23.474 37.645 20.547 40.57 17.621 41.277 18.328 39.059 20.547 41.277 22.767 40.57 23.474"></polyline>
            <polygon id="Fill-321" points="38.263 21.047 46.396 21.047 46.396 20.047 38.263 20.047"></polygon>
            <polygon id="Fill-322" points="48.865 21.047 50.342 21.047 50.342 20.047 48.865 20.047"></polygon>
            <polygon id="Fill-323" points="46.889 21.047 48.365 21.047 48.365 20.047 46.889 20.047"></polygon>
            <polyline id="Fill-324" points="10.63 23.474 9.923 22.767 12.143 20.547 9.923 18.328 10.63 17.621 13.557 20.547 10.63 23.474"></polyline>
            <polygon id="Fill-325" points="4.805 21.047 12.938 21.047 12.938 20.047 4.805 20.047"></polygon>
            <polygon id="Fill-326" points="0.858 21.047 2.335 21.047 2.335 20.047 0.858 20.047"></polygon>
            <polygon id="Fill-327" points="2.835 21.047 4.312 21.047 4.312 20.047 2.835 20.047"></polygon>
            <polyline id="Fill-328" points="39.669 10.616 35.531 10.616 35.531 6.479 36.531 6.479 36.531 9.616 39.669 9.616 39.669 10.616"></polyline>
            <polyline id="Fill-329" points="36.322 10.532 35.615 9.825 41.366 4.074 42.073 4.781 36.322 10.532"></polyline>
            <polyline id="Fill-330" points="43.819 3.035 43.112 2.328 44.156 1.284 44.863 1.991 43.819 3.035"></polyline>
            <polyline id="Fill-331" points="42.422 4.433 41.715 3.726 42.759 2.682 43.466 3.389 42.422 4.433"></polyline>
            <polyline id="Fill-332" points="15.67 34.616 14.67 34.616 14.67 31.478 11.531 31.478 11.531 30.478 15.67 30.478 15.67 34.616"></polyline>
            <polyline id="Fill-333" points="9.835 37.02 9.128 36.313 14.878 30.563 15.585 31.27 9.835 37.02"></polyline>
            <polyline id="Fill-334" points="7.045 39.81 6.338 39.103 7.381 38.06 8.088 38.767 7.045 39.81"></polyline>
            <polyline id="Fill-335" points="8.442 38.412 7.735 37.705 8.778 36.662 9.485 37.369 8.442 38.412"></polyline>
            <polyline id="Fill-336" points="15.67 10.616 11.531 10.616 11.531 9.616 14.67 9.616 14.67 6.479 15.67 6.479 15.67 10.616"></polyline>
            <polyline id="Fill-337" points="14.878 10.532 9.128 4.781 9.835 4.074 15.585 9.825 14.878 10.532"></polyline>
            <polyline id="Fill-338" points="7.38 3.035 6.338 1.99 7.046 1.284 8.088 2.329 7.38 3.035"></polyline>
            <polyline id="Fill-339" points="8.777 4.433 7.735 3.388 8.443 2.682 9.485 3.727 8.777 4.433"></polyline>
            <polyline id="Fill-340" points="36.531 34.616 35.531 34.616 35.531 30.478 39.669 30.478 39.669 31.478 36.531 31.478 36.531 34.616"></polyline>
            <polyline id="Fill-341" points="41.366 37.02 35.615 31.27 36.322 30.563 42.073 36.313 41.366 37.02"></polyline>
            <polyline id="Fill-342" points="44.157 39.81 43.112 38.768 43.818 38.06 44.863 39.102 44.157 39.81"></polyline>
            <polyline id="Fill-343" points="42.76 38.412 41.715 37.37 42.421 36.662 43.466 37.704 42.76 38.412"></polyline>
        </g>
    </g>
</svg>