<?xml version="1.0" encoding="UTF-8"?>
<svg width="25px" height="20px" viewBox="0 0 25 20" version="1.1" xmlns="http://www.w3.org/2000/svg" xmlns:xlink="http://www.w3.org/1999/xlink">
    <!-- Generator: Sketch 52.2 (67145) - http://www.bohemiancoding.com/sketch -->
    <title>user-tick-b</title>
    <desc>Created with Sketch.</desc>
    <g id="Getting-Started" stroke="none" stroke-width="1" fill="none" fill-rule="evenodd">
        <g id="user-tick-b" fill-rule="nonzero">
            <path d="M10.5,1 C9.99206949,1.00145892 9.48695731,1.07554204 9,1.22 C10.9161,1.7732 12,3.435 12,6 C12,8.8584 10.6925,11.51 9,12.5406 C9.44797011,12.8293407 9.96716534,12.9883529 10.5,13 C12.8552,13 15,9.6636 15,6 C15,2.8225 13.36,1 10.5,1 Z" id="Shape" fill="#242940"></path>
            <path d="M19.7366,16.4639 C16.1408,14.5779 13.8666,13.5081 12.8979,13.1439 C12.4783692,13.4571808 12.0064498,13.6933267 11.5042,13.8413 C12.725,14.4092 14.4657,15.2731 16.7367,16.4642 C16.8996314,16.5503249 17.0011508,16.7199094 17.0001,16.9042 L17.0001,17.6171 C17.0039356,17.9151412 16.7853385,18.1694425 16.4901,18.2104 C14.7201,18.457 11.6515,18.8397 9.0001,18.9595 C9.5188,18.9829 10.0268,18.9995 10.5001,18.9995 C13.5099333,18.9173075 16.5120602,18.6534943 19.4901,18.2095 C19.7853385,18.1685425 20.0039356,17.9142412 20.0001,17.6162 L20.0001,16.9033 C20.0009073,16.7192028 19.8993783,16.549898 19.7366,16.4639 Z" id="Shape" fill="#242940"></path>
            <path d="M24.8535,6.1465 C24.6582501,5.95130903 24.3417499,5.95130903 24.1465,6.1465 L20.4693,9.8237 L18.82,8.6157 C18.6827028,8.50126783 18.4947862,8.46877531 18.3270364,8.53046206 C18.1592867,8.59214881 18.037189,8.73864315 18.0067364,8.91476206 C17.9762839,9.09088098 18.0421028,9.26986783 18.1794,9.3843 L20.1794,10.8843 C20.37815,11.0498828 20.6703852,11.0365244 20.8532,10.8535 L24.8532,6.8535 C25.0484738,6.65833291 25.0486081,6.34183274 24.8535,6.1465 Z" id="Shape" fill="#8075F2"></path>
            <path d="M20.2012,15.5784 C18.7121,14.7974 15.5234,13.1519 13.7177,12.4004 C15.2254001,10.6119622 16.0359506,8.33888371 16,6 C16,1.8579 13.5376,0 10.5,0 C7.4624,0 5,1.8579 5,6 C4.96433585,8.33573692 5.77258603,10.6059246 7.2763,12.3936 C5.4615,13.1414 2.2792,14.793 0.795,15.5771 C0.304550119,15.8364062 -0.00163068874,16.3463224 4.7894631e-16,16.9011 L4.7894631e-16,17.6172 C-0.0026383303,18.4138723 0.583359899,19.0901424 1.3723,19.2009 C4.39601995,19.6506527 7.4441279,19.9175045 10.5,20 C13.5558721,19.9175045 16.6039801,19.6506527 19.6277,19.2009 C20.4166401,19.0901424 21.0026383,18.4138723 21,17.6172 L21,16.9043 C21.0015971,16.3480158 20.6937278,15.8369943 20.2012,15.5784 Z M6,6 C6,2.8225 7.64,1 10.5,1 C13.36,1 15,2.8225 15,6 C15,9.6636 12.8552,13 10.5,13 C8.1448,13 6,9.6636 6,6 Z M20,17.6172 C20.0038356,17.9152412 19.7852385,18.1695425 19.49,18.2105 C16.51195,18.6543269 13.5098232,18.9179731 10.5,19 C7.49016672,18.9178075 4.4880398,18.6539943 1.51,18.21 C1.21495267,18.1690658 0.99641834,17.9150518 1,17.6172 L1,16.9011 C0.998717592,16.7170971 1.09968806,16.5475931 1.2621,16.4611 C4.8783,14.5505 7.1594,13.4801 8.0874,13.1322 C8.77532477,13.6770435 9.62263782,13.9818178 10.5,14 C11.3710251,13.9823087 12.2126493,13.6817136 12.8978,13.1436 C13.8664,13.5081 16.1408,14.5779 19.7365,16.4636 C19.8994314,16.5497249 20.0009508,16.7193094 19.9999,16.9036 L20,17.6172 Z" id="Shape" fill="#8075F2"></path>
        </g>
    </g>
</svg>